<svg xmlns="http://www.w3.org/2000/svg" viewBox="0 0 64 64">
  <rect width="64" height="64" fill="white"/>
  <!-- Antler horns -->
  <rect x="12" y="4" width="4" height="8" fill="black"/>
  <rect x="16" y="8" width="4" height="4" fill="black"/>
  <rect x="8" y="8" width="4" height="4" fill="black"/>
  <rect x="48" y="4" width="4" height="8" fill="black"/>
  <rect x="44" y="8" width="4" height="4" fill="black"/>
  <rect x="52" y="8" width="4" height="4" fill="black"/>
  <!-- Leafy crown -->
  <rect x="20" y="12" width="24" height="4" fill="black"/>
  <rect x="16" y="16" width="32" height="4" fill="black"/>
  <!-- Face -->
  <rect x="20" y="20" width="24" height="20" fill="white"/>
  <rect x="19" y="20" width="26" height="20" fill="none" stroke="black" stroke-width="2"/>
  <!-- Eyes -->
  <rect x="24" y="24" width="4" height="4" fill="black"/>
  <rect x="36" y="24" width="4" height="4" fill="black"/>
  <!-- Long beard -->
  <rect x="24" y="32" width="16" height="4" fill="black"/>
  <rect x="20" y="36" width="24" height="8" fill="black"/>
  <!-- Natural robes -->
  <rect x="12" y="44" width="40" height="8" fill="black"/>
  <!-- Vine patterns -->
  <rect x="8" y="48" width="4" height="4" fill="black"/>
  <rect x="52" y="48" width="4" height="4" fill="black"/>
  <!-- Robe bottom -->
  <rect x="16" y="52" width="32" height="12" fill="black"/>
</svg>