<svg xmlns="http://www.w3.org/2000/svg" viewBox="0 0 64 64">
  <rect width="64" height="64" fill="white"/>
  <!-- Necromancer skull crown -->
  <rect x="24" y="4" width="16" height="4" fill="black"/>
  <rect x="20" y="8" width="8" height="8" fill="black"/>
  <rect x="36" y="8" width="8" height="8" fill="black"/>
  <!-- Skull eyes on crown -->
  <rect x="22" y="10" width="4" height="4" fill="white"/>
  <rect x="38" y="10" width="4" height="4" fill="white"/>
  <!-- Hood -->
  <rect x="12" y="16" width="40" height="8" fill="black"/>
  <!-- Face area -->
  <rect x="20" y="24" width="24" height="16" fill="white"/>
  <rect x="19" y="24" width="26" height="16" fill="none" stroke="black" stroke-width="2"/>
  <!-- Hollow eyes -->
  <rect x="24" y="28" width="4" height="4" fill="black"/>
  <rect x="36" y="28" width="4" height="4" fill="black"/>
  <!-- Skeletal nose -->
  <rect x="30" y="32" width="4" height="2" fill="black"/>
  <!-- Dark robes -->
  <rect x="8" y="40" width="48" height="4" fill="black"/>
  <rect x="12" y="44" width="40" height="12" fill="black"/>
  <!-- Bone staff -->
  <rect x="52" y="24" width="4" height="32" fill="black"/>
  <rect x="48" y="20" width="12" height="4" fill="black"/>
  <!-- Bottom of robe -->
  <rect x="16" y="56" width="32" height="8" fill="black"/>
</svg>